<svg width="558" height="406" viewBox="0 0 558 406" fill="none" xmlns="http://www.w3.org/2000/svg">
<path d="M93 0L93 406" stroke="url(#paint0_linear_212_1454)" stroke-opacity="0.4"/>
<path d="M47 0L47 406" stroke="url(#paint1_linear_212_1454)" stroke-opacity="0.4"/>
<path d="M186 0L186 406" stroke="url(#paint2_linear_212_1454)" stroke-opacity="0.4"/>
<path d="M140 0L140 406" stroke="url(#paint3_linear_212_1454)" stroke-opacity="0.4"/>
<path d="M279 0L279 406" stroke="url(#paint4_linear_212_1454)" stroke-opacity="0.4"/>
<path d="M232 0L232 406" stroke="url(#paint5_linear_212_1454)" stroke-opacity="0.4"/>
<path d="M371 0L371 406" stroke="url(#paint6_linear_212_1454)" stroke-opacity="0.4"/>
<path d="M325 0L325 406" stroke="url(#paint7_linear_212_1454)" stroke-opacity="0.4"/>
<path d="M464 0L464 406" stroke="url(#paint8_linear_212_1454)" stroke-opacity="0.4"/>
<path d="M510 0L510 406" stroke="url(#paint9_linear_212_1454)" stroke-opacity="0.4"/>
<path d="M557 0L557 406" stroke="url(#paint10_linear_212_1454)" stroke-opacity="0.4"/>
<path d="M418 0L418 406" stroke="url(#paint11_linear_212_1454)" stroke-opacity="0.4"/>
<path d="M0 179L557 179" stroke="url(#paint12_linear_212_1454)" stroke-opacity="0.4"/>
<path d="M0 365L557 365" stroke="url(#paint13_linear_212_1454)" stroke-opacity="0.4"/>
<path d="M0 272L557 272" stroke="url(#paint14_linear_212_1454)" stroke-opacity="0.4"/>
<path d="M0 87L557 87" stroke="url(#paint15_linear_212_1454)" stroke-opacity="0.4"/>
<path d="M0 226L557 226" stroke="url(#paint16_linear_212_1454)" stroke-opacity="0.4"/>
<path d="M0 318L557 318" stroke="url(#paint17_linear_212_1454)" stroke-opacity="0.4"/>
<path d="M0 40L557 40" stroke="url(#paint18_linear_212_1454)" stroke-opacity="0.4"/>
<path d="M0 133L557 133" stroke="url(#paint19_linear_212_1454)" stroke-opacity="0.4"/>
<defs>
<linearGradient id="paint0_linear_212_1454" x1="93.5" y1="-2.09035e-08" x2="93.5" y2="406" gradientUnits="userSpaceOnUse">
<stop stop-color="#FF603E" stop-opacity="0.75"/>
<stop offset="1" stop-color="#FF284E" stop-opacity="0.1"/>
</linearGradient>
<linearGradient id="paint1_linear_212_1454" x1="47.5" y1="-2.09035e-08" x2="47.5" y2="406" gradientUnits="userSpaceOnUse">
<stop stop-color="#FF603E" stop-opacity="0.75"/>
<stop offset="1" stop-color="#FF284E" stop-opacity="0.1"/>
</linearGradient>
<linearGradient id="paint2_linear_212_1454" x1="186.5" y1="-2.09035e-08" x2="186.5" y2="406" gradientUnits="userSpaceOnUse">
<stop stop-color="#FF603E" stop-opacity="0.75"/>
<stop offset="1" stop-color="#FF284E" stop-opacity="0.1"/>
</linearGradient>
<linearGradient id="paint3_linear_212_1454" x1="140.5" y1="-2.09035e-08" x2="140.5" y2="406" gradientUnits="userSpaceOnUse">
<stop stop-color="#FF603E" stop-opacity="0.75"/>
<stop offset="1" stop-color="#FF284E" stop-opacity="0.1"/>
</linearGradient>
<linearGradient id="paint4_linear_212_1454" x1="279.5" y1="-2.09035e-08" x2="279.5" y2="406" gradientUnits="userSpaceOnUse">
<stop stop-color="#FF603E" stop-opacity="0.75"/>
<stop offset="1" stop-color="#FF284E" stop-opacity="0.1"/>
</linearGradient>
<linearGradient id="paint5_linear_212_1454" x1="232.5" y1="-2.09035e-08" x2="232.5" y2="406" gradientUnits="userSpaceOnUse">
<stop stop-color="#FF603E" stop-opacity="0.75"/>
<stop offset="1" stop-color="#FF284E" stop-opacity="0.1"/>
</linearGradient>
<linearGradient id="paint6_linear_212_1454" x1="371.5" y1="-2.09035e-08" x2="371.5" y2="406" gradientUnits="userSpaceOnUse">
<stop stop-color="#FF603E" stop-opacity="0.75"/>
<stop offset="1" stop-color="#FF284E" stop-opacity="0.1"/>
</linearGradient>
<linearGradient id="paint7_linear_212_1454" x1="325.5" y1="-2.09035e-08" x2="325.5" y2="406" gradientUnits="userSpaceOnUse">
<stop stop-color="#FF603E" stop-opacity="0.75"/>
<stop offset="1" stop-color="#FF284E" stop-opacity="0.1"/>
</linearGradient>
<linearGradient id="paint8_linear_212_1454" x1="464.5" y1="-2.09035e-08" x2="464.5" y2="406" gradientUnits="userSpaceOnUse">
<stop stop-color="#FF603E" stop-opacity="0.75"/>
<stop offset="1" stop-color="#FF284E" stop-opacity="0.1"/>
</linearGradient>
<linearGradient id="paint9_linear_212_1454" x1="510.5" y1="-2.09035e-08" x2="510.5" y2="406" gradientUnits="userSpaceOnUse">
<stop stop-color="#FF603E" stop-opacity="0.75"/>
<stop offset="1" stop-color="#FF284E" stop-opacity="0.1"/>
</linearGradient>
<linearGradient id="paint10_linear_212_1454" x1="557.5" y1="-2.09035e-08" x2="557.5" y2="406" gradientUnits="userSpaceOnUse">
<stop stop-color="#FF603E" stop-opacity="0.75"/>
<stop offset="1" stop-color="#FF284E" stop-opacity="0.1"/>
</linearGradient>
<linearGradient id="paint11_linear_212_1454" x1="418.5" y1="-2.09035e-08" x2="418.5" y2="406" gradientUnits="userSpaceOnUse">
<stop stop-color="#FF603E" stop-opacity="0.75"/>
<stop offset="1" stop-color="#FF284E" stop-opacity="0.1"/>
</linearGradient>
<linearGradient id="paint12_linear_212_1454" x1="5.05273e-09" y1="178.5" x2="557" y2="178.5" gradientUnits="userSpaceOnUse">
<stop stop-color="#FF603E" stop-opacity="0.75"/>
<stop offset="1" stop-color="#FF284E" stop-opacity="0.1"/>
</linearGradient>
<linearGradient id="paint13_linear_212_1454" x1="5.05273e-09" y1="364.5" x2="557" y2="364.5" gradientUnits="userSpaceOnUse">
<stop stop-color="#FF603E" stop-opacity="0.75"/>
<stop offset="1" stop-color="#FF284E" stop-opacity="0.1"/>
</linearGradient>
<linearGradient id="paint14_linear_212_1454" x1="5.05273e-09" y1="271.5" x2="557" y2="271.5" gradientUnits="userSpaceOnUse">
<stop stop-color="#FF603E" stop-opacity="0.75"/>
<stop offset="1" stop-color="#FF284E" stop-opacity="0.1"/>
</linearGradient>
<linearGradient id="paint15_linear_212_1454" x1="5.05273e-09" y1="86.5" x2="557" y2="86.5" gradientUnits="userSpaceOnUse">
<stop stop-color="#FF603E" stop-opacity="0.75"/>
<stop offset="1" stop-color="#FF284E" stop-opacity="0.1"/>
</linearGradient>
<linearGradient id="paint16_linear_212_1454" x1="5.05273e-09" y1="225.5" x2="557" y2="225.5" gradientUnits="userSpaceOnUse">
<stop stop-color="#FF603E" stop-opacity="0.75"/>
<stop offset="1" stop-color="#FF284E" stop-opacity="0.1"/>
</linearGradient>
<linearGradient id="paint17_linear_212_1454" x1="5.05273e-09" y1="317.5" x2="557" y2="317.5" gradientUnits="userSpaceOnUse">
<stop stop-color="#FF603E" stop-opacity="0.75"/>
<stop offset="1" stop-color="#FF284E" stop-opacity="0.1"/>
</linearGradient>
<linearGradient id="paint18_linear_212_1454" x1="5.05273e-09" y1="39.5" x2="557" y2="39.5" gradientUnits="userSpaceOnUse">
<stop stop-color="#FF603E" stop-opacity="0.75"/>
<stop offset="1" stop-color="#FF284E" stop-opacity="0.1"/>
</linearGradient>
<linearGradient id="paint19_linear_212_1454" x1="5.05273e-09" y1="132.5" x2="557" y2="132.5" gradientUnits="userSpaceOnUse">
<stop stop-color="#FF603E" stop-opacity="0.75"/>
<stop offset="1" stop-color="#FF284E" stop-opacity="0.1"/>
</linearGradient>
</defs>
</svg>
